<svg width="1920" height="1056" viewBox="0 0 1920 1056" fill="none" xmlns="http://www.w3.org/2000/svg">
<g filter="url(#filter0_f_83_461)">
<path d="M865.626 -260.676C865.626 -37.79 -99.1395 -147.052 -322.026 -147.052C-544.912 -147.052 -848.59 296.597 -848.59 73.7114C-848.59 -149.175 -544.912 -406.73 -322.026 -406.73C-99.1395 -406.73 865.626 -483.562 865.626 -260.676Z" fill="#11B181"/>
</g>
<g style="mix-blend-mode:hard-light" filter="url(#filter1_f_83_461)">
<path d="M2003.52 -162.609C1969.7 44.3627 868.191 -239.81 609.883 -282.021C351.574 -324.232 -67.6878 30.2287 -33.8656 -176.743C-0.0434269 -383.715 390.98 -565.37 649.288 -523.158C907.596 -480.947 2037.35 -369.581 2003.52 -162.609Z" fill="#059425"/>
</g>
<g style="mix-blend-mode:screen" filter="url(#filter2_f_83_461)">
<path d="M2003.52 -162.609C1969.7 44.3627 650.95 -275.31 342.453 -325.723C33.9569 -376.135 -453.686 -32.8489 -419.864 -239.821C-386.041 -446.793 73.3622 -617.273 381.859 -566.86C690.355 -516.447 2037.35 -369.581 2003.52 -162.609Z" fill="#059425"/>
</g>
<g style="mix-blend-mode:color-dodge" filter="url(#filter3_f_83_461)">
<path d="M1508.22 -261.574C1508.22 -88.484 274.544 -173.335 -10.4662 -173.335C-295.477 -173.335 -683.798 171.196 -683.798 -1.89383C-683.798 -174.984 -295.477 -374.997 -10.4662 -374.997C274.544 -374.997 1508.22 -434.663 1508.22 -261.574Z" fill="#116EB1"/>
</g>
<g style="mix-blend-mode:color-burn" filter="url(#filter4_f_83_461)">
<ellipse cx="799.085" cy="-242.122" rx="1694.04" ry="258.117" fill="url(#paint0_linear_83_461)"/>
</g>
<g style="mix-blend-mode:color-burn" filter="url(#filter5_f_83_461)">
<path d="M2182.01 -79.0221C2111.87 350.211 470.917 -133.978 83.8706 -197.227C-303.176 -260.476 -970.137 507.727 -899.994 78.4935C-829.851 -350.74 -221.454 -760.565 165.592 -697.316C552.639 -634.067 2252.15 -508.255 2182.01 -79.0221Z" fill="#099250"/>
</g>
<g style="mix-blend-mode:screen" filter="url(#filter6_f_83_461)">
<path d="M2282.59 -128.05C2240.26 280.774 455.762 -106.541 38.703 -149.721C-378.356 -192.901 -1030.84 562.02 -988.515 153.197C-946.188 -255.626 -329.042 -669.21 88.0171 -626.03C505.076 -582.851 2324.91 -536.873 2282.59 -128.05Z" fill="#056994"/>
</g>
<g style="mix-blend-mode:screen" filter="url(#filter7_f_83_461)">
<path d="M2217.97 -128.05C2175.64 280.774 391.143 -106.541 -25.9164 -149.721C-442.976 -192.901 -1095.46 562.02 -1053.13 153.197C-1010.81 -255.626 -393.662 -669.21 23.3978 -626.03C440.457 -582.851 2260.3 -536.873 2217.97 -128.05Z" fill="#056994"/>
</g>
<g style="mix-blend-mode:darken" opacity="0.3" filter="url(#filter8_f_83_461)">
<path d="M-154.832 35.2127C-343.165 235.076 -600.682 162.049 -627.586 162.049L-604.525 -383.732C-571.215 -393.982 -406.199 -419.093 -12.6213 -437.542C479.351 -460.603 1171.19 -387.576 1736.19 -383.732C2301.19 -379.889 1847.65 -306.862 1839.96 -156.964C1832.27 -7.06607 1693.91 -64.7191 1451.76 -187.712C1209.62 -310.705 1209.62 -164.651 713.806 4.46439C217.991 173.58 429.385 0.620911 175.712 -64.7191C-77.9613 -130.059 33.5012 -164.651 -154.832 35.2127Z" fill="white"/>
</g>
<g style="mix-blend-mode:screen" filter="url(#filter9_f_83_461)">
<path d="M1797.68 -387.576C1631.64 -633.562 -11.34 -461.884 -812.076 -345.297L-954.287 19.8385C-850.511 187.673 -516.124 481.831 -8.77759 315.79C625.405 108.24 786.834 -26.2839 1939.89 154.362C3092.95 335.008 2005.23 -80.0933 1797.68 -387.576Z" fill="#5339B9"/>
</g>
<g style="mix-blend-mode:soft-light" filter="url(#filter10_f_83_461)">
<path d="M1797.68 -387.576C1631.64 -633.562 -11.34 -461.884 -812.076 -345.297L-954.287 19.8385C-850.511 187.673 -516.124 481.831 -8.77759 315.79C625.405 108.24 786.834 -26.2839 1939.89 154.362C3092.95 335.008 2005.23 -80.0933 1797.68 -387.576Z" fill="#503C9E"/>
</g>
<g style="mix-blend-mode:overlay" filter="url(#filter11_f_83_461)">
<path d="M1672.19 -375.14C1474.76 -685.876 -478.804 -469.008 -1430.91 -321.732L-1600 139.518C-1476.61 351.531 -1079.01 723.12 -475.758 513.372C278.307 251.189 470.251 81.2546 1841.28 309.452C3212.31 537.649 1918.97 13.281 1672.19 -375.14Z" fill="#317C46"/>
</g>
<defs>
<filter id="filter0_f_83_461" x="-1136.85" y="-707.79" width="2290.75" height="1132.4" filterUnits="userSpaceOnUse" color-interpolation-filters="sRGB">
<feFlood flood-opacity="0" result="BackgroundImageFix"/>
<feBlend mode="normal" in="SourceGraphic" in2="BackgroundImageFix" result="shape"/>
<feGaussianBlur stdDeviation="144.132" result="effect1_foregroundBlur_83_461"/>
</filter>
<filter id="filter1_f_83_461" x="-324.057" y="-817.571" width="2616.59" height="1017.95" filterUnits="userSpaceOnUse" color-interpolation-filters="sRGB">
<feFlood flood-opacity="0" result="BackgroundImageFix"/>
<feBlend mode="normal" in="SourceGraphic" in2="BackgroundImageFix" result="shape"/>
<feGaussianBlur stdDeviation="144.132" result="effect1_foregroundBlur_83_461"/>
</filter>
<filter id="filter2_f_83_461" x="-709.799" y="-864.05" width="3002.21" height="1058.72" filterUnits="userSpaceOnUse" color-interpolation-filters="sRGB">
<feFlood flood-opacity="0" result="BackgroundImageFix"/>
<feBlend mode="normal" in="SourceGraphic" in2="BackgroundImageFix" result="shape"/>
<feGaussianBlur stdDeviation="144.132" result="effect1_foregroundBlur_83_461"/>
</filter>
<filter id="filter3_f_83_461" x="-972.063" y="-673.198" width="2768.54" height="1008.21" filterUnits="userSpaceOnUse" color-interpolation-filters="sRGB">
<feFlood flood-opacity="0" result="BackgroundImageFix"/>
<feBlend mode="normal" in="SourceGraphic" in2="BackgroundImageFix" result="shape"/>
<feGaussianBlur stdDeviation="144.132" result="effect1_foregroundBlur_83_461"/>
</filter>
<filter id="filter4_f_83_461" x="-991.04" y="-596.328" width="3580.25" height="708.411" filterUnits="userSpaceOnUse" color-interpolation-filters="sRGB">
<feFlood flood-opacity="0" result="BackgroundImageFix"/>
<feBlend mode="normal" in="SourceGraphic" in2="BackgroundImageFix" result="shape"/>
<feGaussianBlur stdDeviation="48.0442" result="effect1_foregroundBlur_83_461"/>
</filter>
<filter id="filter5_f_83_461" x="-1193.38" y="-992.065" width="3665.77" height="1489.85" filterUnits="userSpaceOnUse" color-interpolation-filters="sRGB">
<feFlood flood-opacity="0" result="BackgroundImageFix"/>
<feBlend mode="normal" in="SourceGraphic" in2="BackgroundImageFix" result="shape"/>
<feGaussianBlur stdDeviation="144.132" result="effect1_foregroundBlur_83_461"/>
</filter>
<filter id="filter6_f_83_461" x="-1278.74" y="-917.407" width="3850.32" height="1480.68" filterUnits="userSpaceOnUse" color-interpolation-filters="sRGB">
<feFlood flood-opacity="0" result="BackgroundImageFix"/>
<feBlend mode="normal" in="SourceGraphic" in2="BackgroundImageFix" result="shape"/>
<feGaussianBlur stdDeviation="144.132" result="effect1_foregroundBlur_83_461"/>
</filter>
<filter id="filter7_f_83_461" x="-1343.36" y="-917.407" width="3850.32" height="1480.68" filterUnits="userSpaceOnUse" color-interpolation-filters="sRGB">
<feFlood flood-opacity="0" result="BackgroundImageFix"/>
<feBlend mode="normal" in="SourceGraphic" in2="BackgroundImageFix" result="shape"/>
<feGaussianBlur stdDeviation="144.132" result="effect1_foregroundBlur_83_461"/>
</filter>
<filter id="filter8_f_83_461" x="-819.763" y="-634.211" width="3031.36" height="1001.46" filterUnits="userSpaceOnUse" color-interpolation-filters="sRGB">
<feFlood flood-opacity="0" result="BackgroundImageFix"/>
<feBlend mode="normal" in="SourceGraphic" in2="BackgroundImageFix" result="shape"/>
<feGaussianBlur stdDeviation="96.0883" result="effect1_foregroundBlur_83_461"/>
</filter>
<filter id="filter9_f_83_461" x="-1434.73" y="-993.482" width="4376.81" height="1838.87" filterUnits="userSpaceOnUse" color-interpolation-filters="sRGB">
<feFlood flood-opacity="0" result="BackgroundImageFix"/>
<feBlend mode="normal" in="SourceGraphic" in2="BackgroundImageFix" result="shape"/>
<feGaussianBlur stdDeviation="240.221" result="effect1_foregroundBlur_83_461"/>
</filter>
<filter id="filter10_f_83_461" x="-1434.73" y="-993.482" width="4376.81" height="1838.87" filterUnits="userSpaceOnUse" color-interpolation-filters="sRGB">
<feFlood flood-opacity="0" result="BackgroundImageFix"/>
<feBlend mode="normal" in="SourceGraphic" in2="BackgroundImageFix" result="shape"/>
<feGaussianBlur stdDeviation="240.221" result="effect1_foregroundBlur_83_461"/>
</filter>
<filter id="filter11_f_83_461" x="-2080.44" y="-1014.07" width="5022.54" height="2069.98" filterUnits="userSpaceOnUse" color-interpolation-filters="sRGB">
<feFlood flood-opacity="0" result="BackgroundImageFix"/>
<feBlend mode="normal" in="SourceGraphic" in2="BackgroundImageFix" result="shape"/>
<feGaussianBlur stdDeviation="240.221" result="effect1_foregroundBlur_83_461"/>
</filter>
<linearGradient id="paint0_linear_83_461" x1="799.085" y1="-500.239" x2="799.085" y2="-43.9234" gradientUnits="userSpaceOnUse">
<stop stop-color="#131CF1"/>
<stop offset="1" stop-color="#DAFEFB" stop-opacity="0"/>
</linearGradient>
</defs>
</svg>
